<svg xmlns="http://www.w3.org/2000/svg" viewBox="0 0 305.6719 54.2647"><defs><style>.cls-1{fill:#0d6efd;}</style></defs><title>Asset 1</title><g id="Layer_2" data-name="Layer 2"><g id="Capa_1" data-name="Capa 1"><path class="cls-1" d="M24.5742,0c8.1582,0,14.6636,5.63,14.6636,14.4619,0,8.1909-6.3037,14.2593-14.6636,14.2593H10.08v19.585H0V0Zm-1.247,19.6187c2.8989,0,6.0342-1.7862,6.0342-5.1568,0-3.2368-2.9664-5.1587-6.0689-5.1587H10.08V19.6187Z"/><path class="cls-1" d="M56.6553,5.6387l16.9,42.6679H64.7783L62.19,41.85H42.2832l-2.5591,6.457H30.9175l16.93-42.6679Zm-11.188,28.147H59.0064L52.2515,16.023Z"/><path class="cls-1" d="M76.7525,34.7974a18.2625,18.2625,0,0,0,12.5268,5.3559c4.3731.03,7.7061-1.9336,7.7061-4.82,0-7.6182-25.232-1.6069-25.232-16.99,0-8.4795,6.9629-12.6748,15.1748-12.6748a27.6664,27.6664,0,0,1,15.71,5.0581l-5.0576,6.1889a19.3419,19.3419,0,0,0-10.6221-3.2138c-3.541,0-6.3969,1.16-6.3969,3.9868,0,8.0342,25.2319,1.042,25.2319,17.6152,0,7.4688-7.1421,12.9727-16.2471,12.9727-5.7119,0-12.229-2.1719-18.2388-7.4087Z"/><polygon class="cls-1" points="146.556 40.064 146.556 5.608 106.132 5.638 106.132 48.306 136.155 48.306 136.155 40.094 115.059 40.094 115.059 29.085 130.769 29.085 130.769 20.873 115.059 20.873 115.059 13.85 137.63 13.85 137.63 48.306 167.652 48.306 167.652 40.064 146.556 40.064"/><rect class="cls-1" x="168.7715" y="5.6382" width="8.9268" height="42.668"/><path class="cls-1" d="M207.7569,25.2759c3.749,2.1128,6.665,5.5649,6.665,10.2358,0,7.7359-5.5947,12.794-12.9434,12.794H179.7871V5.668h17.7051c7.17,0,12.9131,4.9985,12.9131,12.7646a10.78,10.78,0,0,1-2.6484,6.8433M188.6846,13.6128v9.3418h8.8965c2.3213-.2368,4.7012-1.874,4.7012-4.6709,0-2.8857-2.5293-4.6709-5.3262-4.6709Zm11.6641,26.63c2.5879,0,5.3545-1.667,5.3545-4.91,0-3.0049-2.5284-4.8789-5.3252-4.8789H188.6846v9.7891Z"/><path class="cls-1" d="M241.6,48.3062,231.4834,31.019h-7.915V48.3062h-8.8965V5.668h21.6914c7.2,0,12.9434,4.9692,12.9434,12.7651,0,5.564-2.708,9.6987-8.3008,11.7529l10.5918,18.12ZM223.5684,22.9849h11.6933c2.56,0,5.3262-1.5767,5.3262-4.5518,0-2.8569-2.6181-4.5532-5.3555-4.5532h-11.664Z"/><polygon class="cls-1" points="305.672 44.276 295.684 34.289 295.684 40.093 261.012 40.093 261.012 29.084 276.723 29.084 276.723 20.873 261.012 20.873 261.012 13.851 282.109 13.851 282.109 5.639 252.086 5.639 252.086 48.307 295.684 48.307 295.684 54.265 305.672 44.276"/></g></g></svg>